<?xml version="1.0" encoding="UTF-8" standalone="no"?>
<svg
   xmlns:dc="http://purl.org/dc/elements/1.1/"
   xmlns:cc="http://creativecommons.org/ns#"
   xmlns:rdf="http://www.w3.org/1999/02/22-rdf-syntax-ns#"
   xmlns:svg="http://www.w3.org/2000/svg"
   xmlns="http://www.w3.org/2000/svg"
   xmlns:sodipodi="http://sodipodi.sourceforge.net/DTD/sodipodi-0.dtd"
   xmlns:inkscape="http://www.inkscape.org/namespaces/inkscape"
   viewBox="0 0 16 16"
   id="svg2"
   version="1.1"
   inkscape:version="0.48.4 r9939"
   width="100%"
   height="100%"
   sodipodi:docname="mediagallery-add.svg">
  <metadata
     id="metadata14">
    <rdf:RDF>
      <cc:Work
         rdf:about="">
        <dc:format>image/svg+xml</dc:format>
        <dc:type
           rdf:resource="http://purl.org/dc/dcmitype/StillImage" />
        <dc:title></dc:title>
      </cc:Work>
    </rdf:RDF>
  </metadata>
  <defs
     id="defs12" />
  <sodipodi:namedview
     pagecolor="#ffffff"
     bordercolor="#666666"
     borderopacity="1"
     objecttolerance="10"
     gridtolerance="10"
     guidetolerance="10"
     inkscape:pageopacity="0"
     inkscape:pageshadow="2"
     inkscape:window-width="640"
     inkscape:window-height="480"
     id="namedview10"
     showgrid="false"
     inkscape:zoom="14.75"
     inkscape:cx="8"
     inkscape:cy="8"
     inkscape:window-x="638"
     inkscape:window-y="270"
     inkscape:window-maximized="0"
     inkscape:current-layer="g4" />
  <g
     class="icon-color"
     id="g4">
    <g
       id="g3088"
       transform="translate(0,-1)">
      <path
         id="path3066"
         d="M 16,4 V 14 H 0 V 2 H 7 L 8.33,4 H 16 z"
         inkscape:connector-curvature="0"
         style="fill:#ffc857" />
      <path
         id="path3068"
         d="M 16,5 H 8.33 L 7,7 H 0 V 4 h 16 v 1 z"
         inkscape:connector-curvature="0"
         style="fill:#e8a33d" />
      <g
         id="g3070">
        <path
           id="path3072"
           d="M 5,5 H 16 V 16 H 5 z"
           inkscape:connector-curvature="0"
           style="fill:#5599ff" />
        <path
           id="path3074"
           d="m 15,6 v 9 H 6 V 6 h 9 M 16,5 H 5 V 16 H 16 V 5 z"
           inkscape:connector-curvature="0"
           style="opacity:0.2" />
        <path
           id="path3076"
           d="M 12,14 H 7 l 1.25,-2 1.25,-2 1.25,2 1.25,2 z"
           inkscape:connector-curvature="0"
           style="fill:#ffffff" />
        <path
           id="path3078"
           d="M 14,14 H 9 L 10.25,12.5 11.5,11 12.75,12.5 14,14 z"
           inkscape:connector-curvature="0"
           style="fill:#ffffff" />
        <circle
           id="circle3080"
           r="1"
           cy="9"
           cx="13"
           sodipodi:cx="13"
           sodipodi:cy="9"
           sodipodi:rx="1"
           sodipodi:ry="1"
           style="fill:#ffffff"
           d="m 14,9 c 0,0.5522847 -0.447715,1 -1,1 -0.552285,0 -1,-0.4477153 -1,-1 0,-0.5522847 0.447715,-1 1,-1 0.552285,0 1,0.4477153 1,1 z" />
      </g>
    </g>
    <path
       d="m 14.287923,7.1629234 1.6,1.5999996 c 0.1,0.1 0.1,0.3 0,0.4 l -1.3,1.3 -2,-2 1.3,-1.2999996 c 0.1,-0.1 0.3,-0.1 0.4,0 z m -7.0999998,6.6999996 4.8999998,-4.9 2,2 -4.8999998,4.9 c -0.1,0.1 -0.1,0.1 -0.2,0.1 l -1.9,0 0,-1.9 c 0,-0.1 0,-0.1 0.1,-0.2 z"
       id="path6"
       inkscape:connector-curvature="0"
       sodipodi:nodetypes="sssccsssccsscss" />
  </g>
</svg>
